<?xml version="1.0" ?>

<!DOCTYPE svg  PUBLIC '-//W3C//DTD SVG 1.1//EN'  'http://www.w3.org/Graphics/SVG/1.1/DTD/svg11.dtd'>

<!-- Uploaded to: SVG Repo, www.svgrepo.com, Generator: SVG Repo Mixer Tools -->
<svg width="800px" height="800px" viewBox="0 0 64 64" enable-background="new 0 0 64 64" version="1.1" xml:space="preserve" xmlns="http://www.w3.org/2000/svg" xmlns:xlink="http://www.w3.org/1999/xlink">

<g id="Home"/>

    <g id="Camera"/>

    <g id="Mail"/>

    <g id="Print"/>

    <g id="Save"/>

    <g id="Folder"/>

    <g id="Search">

<path d="M62,23c0,11.6-9.4,21-21,21c-5.1,0-9.7-1.8-13.4-4.8L5.4,61.4C5,61.8,4.5,62,4,62s-1-0.2-1.4-0.6   c-0.8-0.8-0.8-2,0-2.8l22.2-22.2c-3-3.6-4.8-8.3-4.8-13.4c0-11.6,9.4-21,21-21S62,11.4,62,23z" fill="#673AB7"/>

        <path d="M58,23c0,9.4-7.6,17-17,17s-17-7.6-17-17S31.6,6,41,6S58,13.6,58,23z" fill="#CDDB39"/>

        <g>

<path d="M41,12c0,1.1-0.9,2-2,2c-3.3,0-6,2.7-6,6c0,1.1-0.9,2-2,2s-2-0.9-2-2c0-5.5,4.5-10,10-10    C40.1,10,41,10.9,41,12z" fill="#FFFFFF"/>

</g>

</g>

    <g id="User"/>

    <g id="Pin"/>

    <g id="Calendar"/>

    <g id="Gallery"/>

    <g id="time"/>

    <g id="Pin_1_"/>

    <g id="Setting"/>

    <g id="Player"/>

    <g id="Lock"/>

    <g id="Trash_Can"/>

    <g id="Notification"/>

    <g id="Record"/>

    <g id="Shopping_Bag"/>

</svg>